<?xml version="1.0" encoding="UTF-8"?><svg width="10px" height="6px" viewBox="0 0 10 6" version="1.1" xmlns="http://www.w3.org/2000/svg" xmlns:xlink="http://www.w3.org/1999/xlink">        <title>Down Bold</title>    <desc>Created with Sketch.</desc>    <defs>        <path d="M5.07749999,5.61874997 C4.88937499,5.61499997 4.74062499,5.54937497 4.62937499,5.43499997 L0.739374985,1.43499997 C0.631874985,1.32312497 0.568749985,1.17562497 0.562499985,1.01874997 L0.562499985,0.97374997 C0.568749985,0.81312497 0.631874985,0.66499997 0.739374985,0.55374997 C0.972499985,0.31499997 1.37624999,0.31624997 1.60687499,0.55374997 L5.06249999,4.10812497 L8.51749999,0.55312497 C8.74999999,0.31562497 9.15312499,0.31562497 9.38437499,0.55312497 C9.49437499,0.66562497 9.55749999,0.81499997 9.56249999,0.97374997 L9.56249999,1.00999997 C9.55749999,1.17312497 9.49374999,1.32249997 9.38437499,1.43499997 L5.49562499,5.43499997 C5.38437499,5.54937497 5.23562499,5.61499997 5.07749999,5.61874997" id="path-1"></path>    </defs>    <g id="Search-Prominence-11" stroke="none" stroke-width="1" fill="none" fill-rule="evenodd">        <g id="Cat-dropdown-responsive-04" transform="translate(-998.000000, -66.000000)">            <g id="Group" transform="translate(242.000000, 48.000000)">                <g id="Down" transform="translate(755.000000, 18.000000)">                    <g transform="translate(0.500000, 0.000000)">                        <mask id="mask-2" fill="white">                            <use xlink:href="#path-1"></use>                        </mask>                        <use id="Down-Bold" fill="#767676" xlink:href="#path-1"></use>                    </g>                </g>            </g>        </g>    </g></svg>